PathFileType	4	(X/Y/Z)	c:/Users/goper/Files/vsCode/490R/osim_files/A02/A02_Fast_05.trc
DataRate	CameraRate	NumFrames	NumMarkers	Units                	OrigDataRate	OrigDataStartFrame	OrigNumFrames
250.00	250.00	6	36	mm	250.0	1242	2483
                Frame#	Time	Mobility_markerset:LPSIS			Mobility_markerset:LASIS			Mobility_markerset:LTH1			Mobility_markerset:LTH2			Mobility_markerset:LTH3			Mobility_markerset:LTH4			Mobility_markerset:LLFE			Mobility_markerset:LMFE			Mobility_markerset:LSH1			Mobility_markerset:LSH2			Mobility_markerset:LSH3			Mobility_markerset:LSH4			Mobility_markerset:LLMAL			Mobility_markerset:LMMAL			Mobility_markerset:LCAL			Mobility_markerset:LMTP5			Mobility_markerset:LTOE			Mobility_markerset:LMTP1			Mobility_markerset:RPSIS			Mobility_markerset:RASIS			Mobility_markerset:RTH1			Mobility_markerset:RTH2			Mobility_markerset:RTH3			Mobility_markerset:RTH4			Mobility_markerset:RLFE			Mobility_markerset:RMFE			Mobility_markerset:RSH1			Mobility_markerset:RSH2			Mobility_markerset:RSH3			Mobility_markerset:RSH4			Mobility_markerset:RLMAL			Mobility_markerset:RMMAL			Mobility_markerset:RCAL			Mobility_markerset:RMTP1			Mobility_markerset:RTOE			Mobility_markerset:RMTP5		
		X1	Y1	Z1	X2	Y2	Z2	X3	Y3	Z3	X4	Y4	Z4	X5	Y5	Z5	X6	Y6	Z6	X7	Y7	Z7	X8	Y8	Z8	X9	Y9	Z9	X10	Y10	Z10	X11	Y11	Z11	X12	Y12	Z12	X13	Y13	Z13	X14	Y14	Z14	X15	Y15	Z15	X16	Y16	Z16	X17	Y17	Z17	X18	Y18	Z18	X19	Y19	Z19	X20	Y20	Z20	X21	Y21	Z21	X22	Y22	Z22	X23	Y23	Z23	X24	Y24	Z24	X25	Y25	Z25	X26	Y26	Z26	X27	Y27	Z27	X28	Y28	Z28	X29	Y29	Z29	X30	Y30	Z30	X31	Y31	Z31	X32	Y32	Z32	X33	Y33	Z33	X34	Y34	Z34	X35	Y35	Z35	X36	Y36	Z36

1242	4.96400	-563.93610	941.82483	318.34836	-703.70422	902.12952	412.26938	-584.90704	657.43451	423.56821	-591.01520	610.84680	417.43314	-643.03040	656.68542	444.18509	-639.85303	612.22339	433.92947	0.00000	0.00000	0.00000	0.00000	0.00000	0.00000	-523.49994	391.63300	369.52167	-505.58792	350.95404	373.29800	-577.51501	361.87134	379.60114	-552.17169	325.24240	381.41733	-430.28976	114.49231	325.31262	-451.05966	115.93916	242.38374	-361.26556	102.42756	274.12555	-506.36722	43.73469	353.02716	-565.18182	54.10670	292.20746	-528.89630	31.57452	242.95116	-576.81885	953.41846	217.70833	-736.19385	928.69012	166.26144	-795.03778	592.12891	148.16011	-821.19519	556.80768	147.73903	-848.55157	623.13275	148.20853	-865.99762	583.86371	146.05927	-890.34723	466.66202	135.94618	-910.70178	477.33478	268.95786	-966.36517	296.58224	154.20177	-991.93372	258.65024	163.55420	-1018.83789	325.26837	149.98344	-1038.31421	282.31644	156.53445	-1067.63428	114.48913	160.80241	-1078.08777	123.54797	245.14122	-1033.88867	71.44041	205.99496	-1204.72961	153.89053	233.96538	-1215.77466	174.79785	199.04877	-1194.68628	147.67830	142.66167
1243	4.96800	-569.24323	939.89929	318.11728	-709.07812	900.24408	412.22797	-589.46289	656.20502	423.84534	-595.34760	609.72162	417.72968	-647.76147	655.09052	444.11588	-644.42950	610.56519	433.79257	0.00000	0.00000	0.00000	-662.67474	389.72244	305.84555	-526.58112	390.60657	370.56467	-507.74045	350.32309	373.46735	-579.73315	360.76379	379.56009	-554.28577	324.26996	381.36255	-430.45801	114.54746	325.30112	-451.24945	115.92045	242.28418	-361.36826	102.50556	274.11853	-506.31342	43.80985	353.01419	-565.18402	54.04627	292.18054	-528.92255	31.44351	242.92780	-582.21051	951.30756	217.48497	-741.54907	926.52710	166.00203	-801.37488	590.05450	148.47104	-827.57074	555.02472	147.89146	-853.93457	621.37738	148.42949	-872.42731	582.32446	146.25273	-897.57312	465.20511	136.35475	-918.12128	476.33414	269.29077	-974.74261	295.73950	154.84419	-1000.79144	258.02368	164.20782	-1026.99866	324.79776	150.47726	-1046.43884	281.99698	157.07539	-1077.47424	114.31028	161.70709	-1087.96875	123.52367	245.94519	-1044.02844	71.07674	207.01984	-1214.19727	155.11563	234.47763	-1224.97217	176.12218	199.50433	-1204.07861	148.66566	143.14749
1244	4.97200	-574.72607	937.95178	317.91949	-714.52759	898.33698	412.04175	-594.16919	654.86377	424.13962	-599.68109	608.48541	418.22156	-652.55804	653.44165	444.04263	-648.90045	608.94556	433.76093	0.00000	0.00000	0.00000	0.00000	0.00000	0.00000	-529.07758	389.81955	370.85098	-509.87811	349.74557	373.59827	-581.98401	359.66669	379.42874	-556.24097	323.33118	381.23895	-430.70999	114.62850	325.34073	-451.39844	115.94975	242.24161	-361.45874	102.69143	274.13177	-506.41635	43.66990	353.05368	-565.20093	53.94184	292.17154	-528.92395	31.34962	242.91107	-587.65759	949.26837	217.19394	-746.77362	924.42242	165.74226	-807.65063	588.13123	148.70001	-834.25287	553.17847	148.32271	-860.92218	619.66235	148.56598	-878.86560	580.72894	146.41051	-904.63672	463.70157	136.69545	-925.43622	475.25906	269.67160	-983.01868	294.86188	155.45923	-1009.05029	257.31931	164.84773	-1035.06335	324.22491	150.91519	-1054.76306	281.56137	157.59912	-1086.95337	114.01243	162.53249	-1097.69714	123.37034	246.70030	-1053.49121	70.65418	208.24463	-1223.03137	156.14572	234.58603	-1233.92505	177.23732	199.96585	-1213.21985	149.49413	143.70572
1245	4.97600	-580.24854	936.02496	317.74298	-720.23468	896.48309	412.02676	-598.81244	653.65320	424.42734	-603.80927	606.37622	418.03326	-657.31006	651.88855	443.98999	-653.37299	607.37262	433.72174	0.00000	0.00000	0.00000	-668.31781	386.66382	306.12845	-531.38104	389.25720	370.91245	-512.04437	349.20276	373.76898	-584.34973	358.55194	379.40503	-558.20740	322.39023	381.24521	-430.99484	114.75777	325.36810	-451.61905	116.00990	242.23682	-361.60394	102.94888	274.27463	-506.48550	43.60780	353.07202	-565.24994	53.83493	292.16855	-528.92133	31.22821	242.91988	-593.20758	947.20715	216.94257	-752.16046	922.31189	165.58928	-813.85132	586.22968	148.80464	-840.75201	551.34875	148.58833	-866.16510	618.15192	148.49753	-885.21088	579.18628	146.54486	-911.68030	462.40720	137.08112	-932.56451	474.62390	270.26617	-991.03552	293.92050	156.02112	-1017.46497	256.57672	165.46489	-1042.87634	323.62442	151.39168	-1063.22168	281.07809	158.08376	-1096.02405	113.70010	163.34123	-1106.69348	123.36684	247.57065	-1063.50305	70.04408	208.90701	-1232.02246	156.91891	235.14648	-1242.66821	177.97607	200.50003	-1222.08691	149.93251	144.28014
1246	4.98000	-585.67950	934.19495	317.50189	-725.85919	894.66711	411.95309	-603.45801	652.53046	424.66595	-608.09253	605.25000	418.15906	-662.13208	650.40857	443.90945	-657.78088	605.95825	433.69247	-629.28796	435.14081	382.04572	0.00000	0.00000	0.00000	-533.06104	388.99265	370.09482	-514.16528	348.76498	373.90616	-586.42450	357.62036	379.37659	-560.21338	321.58194	381.17789	-431.26584	114.99620	325.42191	-451.86203	116.12421	242.26979	-361.75986	103.33371	274.38678	-506.49661	43.58787	353.09479	-565.30286	53.69947	292.15601	-528.89789	31.19767	242.87216	-598.78595	945.35815	216.67763	-757.82764	920.26599	165.18541	-819.98724	584.41364	148.82483	-847.25183	549.65796	148.81589	-872.99158	616.68488	148.30119	-891.52649	577.69788	146.61682	-918.55505	461.01199	137.37759	-939.41235	473.24924	270.21066	-998.83282	292.97052	156.56754	-1025.51025	255.81636	166.05003	-1050.56555	322.92310	151.81657	-1071.17969	280.52396	158.58023	-1104.80139	113.36386	164.10286	-1115.63892	123.22776	248.16930	-1072.56665	69.65518	209.78865	-1240.93530	157.20798	236.05240	-1251.25012	178.31322	200.92552	-1230.78040	150.07533	144.91267
1247	4.98400	-591.39429	932.40320	317.34076	-731.52014	892.94720	411.88480	-608.16223	651.41528	424.98154	-612.81061	604.85687	418.57935	-666.93939	648.94427	443.88406	-662.23810	604.52783	433.60068	0.00000	0.00000	0.00000	-652.51385	415.33524	265.39191	-534.64551	389.04724	369.81625	-516.31146	348.42831	374.00443	-588.63300	356.83142	379.32712	-562.16156	320.96774	381.15866	-431.53296	115.26040	325.49771	-452.16415	116.26723	242.38928	-362.04816	103.74596	274.51874	-506.56302	43.57647	353.11938	-565.37921	53.58744	292.14655	-528.91779	31.11528	242.86967	-604.35443	943.50104	216.41212	-763.37018	918.32825	164.91696	-826.14404	582.68567	148.80980	-853.67224	547.99969	148.95935	-878.43774	614.98010	148.65897	-897.89386	576.21399	146.71330	-925.36035	459.68930	137.65892	-946.35504	472.32208	270.46091	-1006.45361	292.04175	157.04913	-1033.29199	255.03490	166.59441	-1058.04150	322.19348	152.22363	-1078.78210	279.90173	159.02995	-1113.24133	112.99460	164.87753	-1124.04761	123.43637	249.54810	-1080.84570	69.46479	210.61189	-1248.90698	157.30719	236.23781	-1259.49854	178.35413	201.48245	-1239.00342	149.96367	145.48799
